<svg width="96" height="96" viewBox="0 0 96 96" fill="none" xmlns="http://www.w3.org/2000/svg">
  <!-- Background circle -->
  <circle cx="48" cy="48" r="48" fill="#0078d4"/>
  
  <!-- Main folder -->
  <path d="M20 32h20l4-6h32c4.4 0 8 3.6 8 8v28c0 4.4-3.6 8-8 8H20c-4.4 0-8-3.6-8-8V40c0-4.4 3.6-8 8-8z" fill="white"/>
  
  <!-- Folder tab -->
  <path d="M16 26h24l4-6h36c4.4 0 8 3.6 8 8v2H16c-4.4 0-8-3.6-8-8v-2c0-2.2 1.8-4 4-4z" fill="#f0f8ff"/>
  
  <!-- Filter/funnel icon -->
  <path d="M32 44h32l-8 8v8l-16-8v-8l-8-8z" fill="#0078d4"/>
  
  <!-- Filter lines -->
  <line x1="36" y1="48" x2="60" y2="48" stroke="white" stroke-width="2" stroke-linecap="round"/>
  <line x1="40" y1="52" x2="56" y2="52" stroke="white" stroke-width="2" stroke-linecap="round"/>
  <line x1="44" y1="56" x2="52" y2="56" stroke="white" stroke-width="2" stroke-linecap="round"/>
  
  <!-- Small folder icon in corner -->
  <path d="M68 20h12l4-4h8c2.2 0 4 1.8 4 4v12c0 2.2-1.8 4-4 4H68c-2.2 0-4-1.8-4-4V24c0-2.2 1.8-4 4-4z" fill="white" opacity="0.8"/>
  <path d="M66 16h8l2-2h12c2.2 0 4 1.8 4 4v1H66c-2.2 0-4-1.8-4-4v-1c0-1.1 0.9-2 2-2z" fill="#f0f8ff" opacity="0.8"/>
</svg>